<?xml version="1.0" encoding="UTF-8"?>
<svg xmlns="http://www.w3.org/2000/svg" xmlns:xlink="http://www.w3.org/1999/xlink" width="512" height="512" viewBox="0 0 56 60" version="1.1"><!-- Generator: Sketch 51.3 (57544) - http://www.bohemiancoding.com/sketch --><title>003 - DNA Family Tree</title><desc>Created with Sketch.</desc><defs/><g id="Page-1" stroke="none" stroke-width="1" fill="none" fill-rule="evenodd"><g id="003---DNA-Family-Tree" fill="#000000" fill-rule="nonzero"><path d="M26,31.2759 C26,31.8281847 26.4477153,32.2759 27,32.2759 L29,32.2759 C29.5522847,32.2759 30,31.8281847 30,31.2759 C30,30.7236153 29.5522847,30.2759 29,30.2759 L27,30.2759 C26.4477153,30.2759 26,30.7236153 26,31.2759 Z" id="Shape"/><path d="M29,34.2759 L27,34.2759 C26.4477153,34.2759 26,34.7236153 26,35.2759 C26,35.8281847 26.4477153,36.2759 27,36.2759 L29,36.2759 C29.5522847,36.2759 30,35.8281847 30,35.2759 C30,34.7236153 29.5522847,34.2759 29,34.2759 Z" id="Shape"/><path d="M3.88,14.0391 C4.80424388,14.6465054 5.88301925,14.9767066 6.9889,14.9907 C8.27972229,15.0496598 9.51052491,14.4422248 10.2489,13.3818 C10.8545308,12.382854 10.9509833,11.156016 10.5089,10.0747 C10.0586692,8.93124434 9.25270653,7.96285504 8.21,7.3125 C6.1207,5.9678 1.43,6.3813 0.9024,6.4331 C0.59820319,6.46289279 0.324335835,6.63016961 0.158936824,6.88720361 C-0.00646218702,7.14423761 -0.045227968,7.46280013 0.0537,7.752 C0.2256,8.2534 1.7905,12.6938 3.88,14.0391 Z M7.128,8.9941 C7.80478574,9.41269176 8.33201235,10.034416 8.6344,10.7705 C8.8488339,11.2631419 8.82433943,11.827105 8.568,12.2993 C7.9815,13.2119 6.3302,13.2383 4.9625,12.3574 L4.963,12.3574 C4.0782,11.7881 3.0846,9.9189 2.422,8.3438 C4.1338,8.2939 6.2437,8.4248 7.1279,8.9941 L7.128,8.9941 Z" id="Shape"/><path d="M15.4658,11.2949 C15.7158524,11.3445982 15.9701568,11.3697841 16.2251,11.3701 C16.4672267,11.3674237 16.708459,11.3402181 16.9451,11.2889 C17.1133,12.7377 17.3398,14.1597 17.5613,15.2627 C15.6942133,14.8128886 13.7579244,14.727192 11.8584,15.0103 C11.4987654,15.0540483 11.1909183,15.2888871 11.0536814,15.6241735 C10.9164444,15.9594599 10.9712832,16.3427506 11.1970311,16.6261035 C11.4227791,16.9094563 11.7841262,17.048551 12.1416,16.9897 C14.3007285,16.657781 16.5089594,16.8878445 18.5533,17.6577 C18.6121958,17.6865055 18.6737954,17.7094169 18.7372,17.7261 C19.9446376,18.1984823 21.0604765,18.8777518 22.0346,19.7334 C22.2994,22.4834 24.8459,25.1378 26.3518,26.4792 C24.7438,27.6961 22,30.217 22,33.2759 C22,36.3129 24.7053,38.8198 26.3177,40.0459 C24.8988,41.2412 22.6286,43.4976 22.1158,46 L16,46 C15.4477153,46 15,46.4477153 15,47 C15,54.1797017 20.8202983,60 28,60 C35.1797017,60 41,54.1797017 41,47 C41,46.4477153 40.5522847,46 40,46 L33.8842,46 C33.3714,43.4976 31.1012,41.2412 29.6823,40.0463 C31.2947,38.82 34,36.3129 34,33.2759 C34,30.217 31.2562,27.6959 29.6482,26.4792 C31.1541,25.1379 33.7003,22.4835 33.9654,19.7337 C34.9395407,18.8779996 36.0553709,18.1986338 37.2628,17.7261 C37.3269606,17.7092316 37.3892713,17.6859823 37.4488,17.6567 C39.4926321,16.8871609 41.7003187,16.6574375 43.8588,16.9897 C44.2162738,17.048551 44.5776209,16.9094563 44.8033689,16.6261035 C45.0291168,16.3427506 45.0839556,15.9594599 44.9467186,15.6241735 C44.8094817,15.2888871 44.5016346,15.0540483 44.142,15.0103 C42.2425006,14.7270736 40.3062143,14.8126343 38.4391,15.2623 C38.6604,14.1603 38.8869,12.7397 39.055,11.2923 C39.2893146,11.3419831 39.5279886,11.3682456 39.7675,11.3707 C40.0250507,11.3704203 40.2819625,11.3450674 40.5346,11.295 C41.9454195,10.9700456 43.171662,10.1028821 43.9482,8.881 C45.3446,6.8204 45.019,2.121 44.9775,1.591 C44.953167,1.28621836 44.790847,1.00927961 44.5368127,0.83913102 C44.2827785,0.668982434 43.9649017,0.624292119 43.6738,0.7178 C41.6147047,1.35544266 39.685813,2.35515722 37.9777,3.67 C36.5260815,2.22162383 34.8491387,1.01829787 33.0122,0.1069 C32.7392329,-0.0304994197 32.4184231,-0.0355414907 32.141273,0.0932119038 C31.8641229,0.221965298 31.661059,0.470379148 31.59,0.7676 C31.4665,1.2832 30.4148,5.8726 31.4616,8.1265 C32.1919269,9.91795984 33.8751546,11.1401419 35.8047,11.28 C36.2410022,11.2774544 36.6724521,11.1882616 37.074,11.0176 C36.8924168,12.6914085 36.6089577,14.3525899 36.2252,15.9919 C34.7984882,16.5851568 33.4914304,17.4326859 32.3677,18.4932 C31.5422,19.0309 29.3485,20.2761 28,20.2761 C26.6515,20.2761 24.4575,19.0307 23.6321,18.4931 C22.5083989,17.4328932 21.201493,16.585578 19.775,15.9924 C19.3911454,14.3530374 19.1076523,12.6917855 18.9261,11.0179 C19.3276276,11.1884788 19.7590482,11.2775706 20.1953,11.28 C22.1246493,11.1402129 23.807749,9.91823324 24.5381,8.127 C25.5854,5.8726 24.5337,1.2832 24.4102,0.7676 C24.3391565,0.470322715 24.1360603,0.221859493 23.8588568,0.0930993895 C23.5816533,-0.0356607137 23.2607854,-0.0305770353 22.9878,0.1069 C21.1511125,1.01817243 19.4743506,2.22125327 18.0228,3.6693 C16.3144529,2.35470161 14.3853998,1.35522822 12.3262,0.7178 C12.0351022,0.624432664 11.7172948,0.669232255 11.4633505,0.83943123 C11.2094063,1.0096302 11.0471782,1.28656084 11.0229,1.5913 C10.9814,2.1206 10.6558,6.8203 12.0483,8.8755 C12.8252104,10.099784 14.0529269,10.968939 15.4658,11.2949 Z M43.0376,3.0749 C43.0537,4.7824 42.8809,6.8898 42.2886,7.7639 C41.8034306,8.54265844 41.0366923,9.10437926 40.1479,9.3322 C39.7440478,9.42815362 39.3186383,9.36057695 38.9644,9.1442 L38.9152,9.1075 C39.3630689,7.95370686 39.391384,6.67924571 38.9952,5.5067 L39.0098,5.4867 C39.6318,4.63 41.4844,3.6953 43.0376,3.0752 L43.0376,3.0749 Z M36.3535,9.1626 C35.3691,9.6226 33.9609,8.7593 33.2754,7.2842 C32.8325,6.3296 32.9922,4.2188 33.2754,2.5332 C34.7446,3.4032 36.4595,4.6426 36.9043,5.5996 C37.4074246,6.54529998 37.4208436,7.67622829 36.9403,8.6336 C36.9303,8.6465 36.9188,8.6578 36.9093,8.6711 C36.7719882,8.88226582 36.5798773,9.05215154 36.3535,9.1626 Z M28,58 C22.3148936,57.9931306 17.5689027,53.6609101 17.0449,48 L38.9549,48 C38.4309045,53.6608339 33.6850297,57.9930275 28,58 Z M31.8262,46 L24.1747,46 C24.7624,44.1656 26.7447,42.2605 28.001,41.2539 C29.2576,42.2589 31.24,44.162 31.8262,46 Z M32,33.2759 C32,35.5459 29.459,37.7886 27.999,38.8059 C26.539,37.7922 24,35.5549 24,33.2759 C24,31.0059 26.541,28.7627 28.001,27.7459 C29.4609,28.7593 32,30.9961 32,33.2759 Z M28,22.2759 C29.1801848,22.1968658 30.3311222,21.8737521 31.38,21.327 C30.4789294,22.8166408 29.3367242,24.1462959 28,25.2617 C26.6636576,24.1466963 25.5216698,22.8175988 24.6206,21.3286 C25.6694557,21.8746186 26.8201536,22.1971777 28,22.2759 Z M22.7261,2.5332 C23.0088,4.2173 23.1689,6.3276 22.7241,7.2847 C22.04,8.7593 20.6309,9.6187 19.647,9.1631 C19.4206177,9.05238145 19.2285247,8.88230419 19.0912,8.671 C19.0817,8.6577 19.0706,8.6465 19.0604,8.6337 C18.5798304,7.67645754 18.593175,6.54563529 19.0962,5.6 C19.54,4.645 21.2559,3.4053 22.7261,2.5332 Z M16.9661,5.4517 C16.9777586,5.47050821 16.9911502,5.48818514 17.0061,5.5045 C16.6089156,6.67783409 16.6368079,7.95344857 17.0849,9.1083 L17.0414,9.1411 C16.6862729,9.36082987 16.2581322,9.42972691 15.852,9.3325 C14.9611751,9.10363019 14.1929783,8.53993007 13.7074,7.7588 C13.1181,6.8888 12.9457,4.7817 12.9623,3.0742 C14.5137,3.6919 16.3608,4.62 16.9658,5.4517 L16.9661,5.4517 Z" id="Shape"/><path d="M10.8745,30.5693 C11.0514561,30.8187077 11.3328051,30.9734368 11.6382,30.9893 C11.6558,30.9902 11.6729,30.9907 11.6899,30.9907 C11.9775211,30.9908322 12.2512268,30.8669174 12.4409,30.6507 C12.7909,30.2523 15.8633,26.6883 15.9985,24.2 C16.1357,21.4534 14.4604,19.1214 12.2632,19.0018 C11.6838022,18.9763095 11.1078853,19.1035974 10.5932,19.3709 C10.5723,19.3436 10.5597,19.3094 10.5379,19.283 C9.93402081,18.5572924 9.06491454,18.1033305 8.1243,18.0223 C6.67191768,17.9138519 5.23535287,18.3824782 4.1263,19.3265 C2.2041,20.9 1.1392,25.4849 1.0239,26.0024 C0.95786905,26.2985798 1.02989726,26.6087203 1.21970104,26.845484 C1.40950482,27.0822477 1.69654894,27.2200188 2,27.22 L2.0146,27.22 C2.4837,27.2131 6.2195,27.1221 8.4162,26.014 C9.04917624,27.6259004 9.87459101,29.1554175 10.8745,30.5693 Z M14.0015,24.0957 C13.9443,25.1489 12.8159,26.9409 11.7788,28.2993 C10.9434991,27.0580785 10.3452168,25.672936 10.0142,24.2139 L10.0126,24.2088 L10.0132,24.2026 C9.99896956,24.1040136 9.99388125,24.004323 9.998,23.9048 L9.9985,23.8975 C10.0245746,23.0356374 10.353378,22.2104956 10.9272,21.5669 L10.9321,21.5605 L10.9355,21.5581 C11.2385729,21.1991883 11.6857625,20.9939209 12.1555,20.9981 C13.2373,21.0576 14.082,22.4775 14.0015,24.0957 Z M7.9966,23.9185 C7.9717,23.9399 7.9466,23.9614 7.9214,23.9819 C7.1014,24.645 5.0151,25.0098 3.312,25.1514 C3.7954,23.5122 4.5747,21.5439 5.3882,20.8779 C6.02382233,20.340145 6.82087175,20.0301384 7.6528,19.9971 C7.73964771,19.9969728 7.82643951,20.0015126 7.9128,20.0107 C8.32815153,20.0388714 8.71512632,20.231495 8.988,20.5459 C9.02010357,20.584682 9.04947426,20.6256472 9.0759,20.6685 C8.42967535,21.5820414 8.05722541,22.6608523 8.0022,23.7785 C7.999,23.8247 7.9971,23.8711 7.9966,23.9185 Z" id="Shape"/><path d="M51.8682,19.3223 C50.7590807,18.3824906 49.3253336,17.9156709 47.8755,18.0223 C46.9377777,18.1023695 46.0708529,18.5535794 45.4673,19.2757 C45.4434,19.3047 45.4298,19.3412 45.4073,19.3711 C44.8922303,19.1036512 44.3159062,18.9762957 43.7361,19.0018 C41.5399,19.1218 39.8646,21.4534 40.0018,24.2044 C40.137,26.6883 43.2093,30.2523 43.5594,30.6507 C43.7490732,30.8669174 44.0227789,30.9908322 44.3104,30.9907 C44.3274,30.9907 44.3445,30.9902 44.3621,30.9893 C44.6674949,30.9734368 44.9488439,30.8187077 45.1258,30.5693 C46.1254537,29.1557348 46.9506975,27.6265926 47.5836,26.0151 C49.7751,27.1217 53.5162,27.2133 53.9857,27.2202 L54,27.2202 C54.3033855,27.2201985 54.5903657,27.0824676 54.7801569,26.8457778 C54.9699481,26.6090881 55.0420257,26.299036 54.9761,26.0029 C54.8608,25.4854 53.7959,20.9 51.8682,19.3223 Z M44.2207,28.2993 C43.1836,26.9424 42.0562,25.1523 41.9985,24.1001 C41.918,22.4775 42.7627,21.0576 43.8433,20.9985 C44.3122715,20.999437 44.7577826,21.203733 45.0645,21.5585 L45.0679,21.5609 L45.0728,21.5673 C45.646622,22.2108956 45.9754254,23.0360374 46.0015,23.8979 L46.002,23.9052 C46.0061188,24.004723 46.0010304,24.1044136 45.9868,24.203 L45.9874,24.2092 L45.9858,24.2143 C45.6540145,25.6730457 45.0556071,27.0579496 44.2207,28.2993 Z M48.0854,23.9878 C48.0576,23.9653 48.0303,23.9419 48.0034,23.9185 C48.0029,23.8716 48.001,23.8247 47.998,23.7785 C47.943056,22.6609156 47.5707872,21.5821269 46.9248,20.6685 C46.9530569,20.622781 46.984221,20.578924 47.0181,20.5372 C47.2908167,20.2270536 47.6753076,20.0375949 48.0874,20.0103 C49.006867,19.9632426 49.9090848,20.2724466 50.6064,20.8736 C51.4219,21.5411 52.2031,23.5113 52.6875,25.1519 C50.9858,25.0117 48.9023,24.6479 48.0854,23.9878 Z" id="Shape"/><path d="M55.0972,6.4331 C54.5693,6.3799 49.8784,5.9668 47.79,7.3125 C46.747083,7.96271974 45.9409552,8.93113897 45.4907,10.0747 C45.0486422,11.1561895 45.1450908,12.3831643 45.7507,13.3823 C46.4892921,14.4424166 47.7200048,15.0496185 49.0107,14.9907 C50.1165921,14.976779 51.1953873,14.6465717 52.1196,14.0391 L52.12,14.0391 C54.2094,12.6938 55.7743,8.2534 55.9462,7.752 C56.0451362,7.46273826 56.0063214,7.14411111 55.8408342,6.88706112 C55.6753469,6.63001113 55.4013693,6.46278043 55.0971,6.4331 L55.0972,6.4331 Z M51.0372,12.3574 C49.669,13.2374 48.0186,13.2109 47.4317,12.2998 C47.1753624,11.8274254 47.1508695,11.2633146 47.3653,10.7705 C47.6677186,10.0342832 48.1951513,9.41252233 48.8722,8.9941 C50.1521023,8.46701895 51.5360371,8.24120448 52.9171,8.3341 C53.1417,8.3341 53.3634,8.3375 53.5782,8.3441 C52.9175,9.918 51.9243,11.7861 51.0371,12.3574 L51.0372,12.3574 Z" id="Shape"/><path d="M23.71,49.29 C23.66,49.25 23.61,49.21 23.56,49.17 C23.504244,49.132172 23.443716,49.101908 23.38,49.08 C23.3233399,49.0511067 23.262664,49.0308814 23.2,49.02 C23.0683899,48.9896843 22.9316101,48.9896843 22.8,49.02 C22.737336,49.0308814 22.6766601,49.0511067 22.62,49.08 C22.5563135,49.1019781 22.4957944,49.1322377 22.44,49.17 C22.39,49.21 22.34,49.25 22.29,49.29 C22.1072663,49.4816338 22.0036835,49.735233 22,50 C22.0016014,50.0637646 22.0082893,50.1272996 22.02,50.19 C22.029351,50.2562165 22.0496265,50.3204221 22.08,50.38 C22.101908,50.443716 22.132172,50.504244 22.17,50.56 C22.21,50.61 22.25,50.66 22.29,50.71 C22.6843579,51.0966869 23.3156421,51.0966869 23.71,50.71 C23.8924138,50.5181592 23.9959431,50.2646908 24,50 C23.99842,49.8693227 23.971241,49.7402223 23.92,49.62 C23.869126,49.4989365 23.7981227,49.3873598 23.71,49.29 Z" id="Shape"/><path d="M23.71,52.29 C23.6624354,52.2470473 23.6123461,52.2069758 23.56,52.17 C23.504244,52.132172 23.443716,52.101908 23.38,52.08 C23.3233399,52.0511067 23.262664,52.0308814 23.2,52.02 C23.0683899,51.9896843 22.9316101,51.9896843 22.8,52.02 C22.737336,52.0308814 22.6766601,52.0511067 22.62,52.08 C22.5563135,52.1019781 22.4957944,52.1322377 22.44,52.17 C22.3874664,52.2067259 22.3373619,52.2468095 22.29,52.29 C22.2017349,52.3872512 22.1307152,52.4988534 22.08,52.62 C22.028759,52.7402223 22.00158,52.8693227 22,53 C22.0038214,53.2647389 22.1073844,53.5182897 22.29,53.71 C22.34,53.75 22.39,53.79 22.44,53.83 C22.4957944,53.8677623 22.5563135,53.8980219 22.62,53.92 C22.6767606,53.9486527 22.7373999,53.9688658 22.8,53.98 C22.9319987,54.0066801 23.0680013,54.0066801 23.2,53.98 C23.2626001,53.9688658 23.3232394,53.9486527 23.38,53.92 C23.443716,53.898092 23.504244,53.867828 23.56,53.83 C23.61,53.79 23.66,53.75 23.71,53.71 C23.800177,53.6142217 23.8714288,53.5022547 23.92,53.38 C24.0267162,53.1379052 24.0267162,52.8620948 23.92,52.62 C23.8716001,52.4976578 23.8003288,52.3856601 23.71,52.29 Z" id="Shape"/><path d="M28.71,49.29 C28.4220218,49.0070497 27.9924897,48.9242958 27.62,49.08 C27.4988534,49.1307152 27.3872512,49.2017349 27.29,49.29 C27.1072663,49.4816338 27.0036835,49.735233 27,50 C27.0015541,50.1306801 27.0287342,50.2597855 27.08,50.38 C27.1284108,50.5023366 27.1996808,50.6143324 27.29,50.71 C27.3873598,50.7981227 27.4989365,50.869126 27.62,50.92 C27.7402223,50.971241 27.8693227,50.99842 28,51 C28.4071998,51.0096292 28.7760763,50.7610386 28.92,50.38 C29.0267162,50.1379052 29.0267162,49.8620948 28.92,49.62 C28.8739545,49.4964715 28.8024006,49.3840297 28.71,49.29 Z" id="Shape"/><path d="M28.71,52.29 C28.4220218,52.0070497 27.9924897,51.9242958 27.62,52.08 C27.3693008,52.1717573 27.1717573,52.3693008 27.08,52.62 C27.028759,52.7402223 27.00158,52.8693227 27,53 C26.990613,53.4071289 27.2391181,53.7758784 27.62,53.92 C27.7402223,53.971241 27.8693227,53.99842 28,54 C28.2660353,54.0027011 28.5219616,53.8982118 28.7100867,53.7100867 C28.8982118,53.5219616 29.0027011,53.2660353 29,53 C28.99842,52.8693227 28.971241,52.7402223 28.92,52.62 C28.8716001,52.4976578 28.8003288,52.3856601 28.71,52.29 Z" id="Shape"/><path d="M32.62,49.08 C32.4988534,49.1307152 32.3872512,49.2017349 32.29,49.29 C31.9659343,49.6103572 31.8982273,50.1087726 32.1250888,50.5039702 C32.3519502,50.8991678 32.8164924,51.0920479 33.2565553,50.9737604 C33.6966182,50.8554729 34.0018516,50.4556795 34,50 C33.99842,49.8693227 33.971241,49.7402223 33.92,49.62 C33.8716001,49.4976578 33.8003288,49.3856601 33.71,49.29 C33.4224393,49.0062554 32.9923971,48.9234033 32.62,49.08 Z" id="Shape"/><path d="M33.71,52.29 C33.317413,51.9006061 32.683887,51.9018995 32.2928932,52.2928932 C31.9018995,52.683887 31.9006061,53.317413 32.29,53.71 C32.3873598,53.7981227 32.4989365,53.869126 32.62,53.92 C32.7402223,53.971241 32.8693227,53.99842 33,54 C33.2660353,54.0027011 33.5219616,53.8982118 33.7100867,53.7100867 C33.8982118,53.5219616 34.0027011,53.2660353 34,53 C33.99842,52.8693227 33.971241,52.7402223 33.92,52.62 C33.869126,52.4989365 33.7981227,52.3873598 33.71,52.29 Z" id="Shape"/></g></g></svg>
