<?xml version="1.0" encoding="UTF-8"?>
<svg xmlns="http://www.w3.org/2000/svg" xmlns:xlink="http://www.w3.org/1999/xlink" width="512" height="512" viewBox="0 0 54 60" version="1.1"><!-- Generator: Sketch 51.3 (57544) - http://www.bohemiancoding.com/sketch --><title>007 - Bottling Plant</title><desc>Created with Sketch.</desc><defs/><g id="Page-1" stroke="none" stroke-width="1" fill="none" fill-rule="evenodd"><g id="007---Bottling-Plant" fill="#000000" fill-rule="nonzero"><path d="M6,57 C7.65685425,57 9,55.6568542 9,54 C9,52.3431458 7.65685425,51 6,51 C4.34314575,51 3,52.3431458 3,54 C3,55.6568542 4.34314575,57 6,57 Z M6,53 C6.55228475,53 7,53.4477153 7,54 C7,54.5522847 6.55228475,55 6,55 C5.44771525,55 5,54.5522847 5,54 C5,53.4477153 5.44771525,53 6,53 Z" id="Shape"/><path d="M13,57 C14.6568542,57 16,55.6568542 16,54 C16,52.3431458 14.6568542,51 13,51 C11.3431458,51 10,52.3431458 10,54 C10,55.6568542 11.3431458,57 13,57 Z M13,53 C13.5522847,53 14,53.4477153 14,54 C14,54.5522847 13.5522847,55 13,55 C12.4477153,55 12,54.5522847 12,54 C12,53.4477153 12.4477153,53 13,53 Z" id="Shape"/><path d="M20,57 C21.6568542,57 23,55.6568542 23,54 C23,52.3431458 21.6568542,51 20,51 C18.3431458,51 17,52.3431458 17,54 C17,55.6568542 18.3431458,57 20,57 Z M20,53 C20.5522847,53 21,53.4477153 21,54 C21,54.5522847 20.5522847,55 20,55 C19.4477153,55 19,54.5522847 19,54 C19,53.4477153 19.4477153,53 20,53 Z" id="Shape"/><path d="M27,57 C28.6568542,57 30,55.6568542 30,54 C30,52.3431458 28.6568542,51 27,51 C25.3431458,51 24,52.3431458 24,54 C24,55.6568542 25.3431458,57 27,57 Z M27,53 C27.5522847,53 28,53.4477153 28,54 C28,54.5522847 27.5522847,55 27,55 C26.4477153,55 26,54.5522847 26,54 C26,53.4477153 26.4477153,53 27,53 Z" id="Shape"/><path d="M34,57 C35.6568542,57 37,55.6568542 37,54 C37,52.3431458 35.6568542,51 34,51 C32.3431458,51 31,52.3431458 31,54 C31,55.6568542 32.3431458,57 34,57 Z M34,53 C34.5522847,53 35,53.4477153 35,54 C35,54.5522847 34.5522847,55 34,55 C33.4477153,55 33,54.5522847 33,54 C33,53.4477153 33.4477153,53 34,53 Z" id="Shape"/><path d="M41,57 C42.6568542,57 44,55.6568542 44,54 C44,52.3431458 42.6568542,51 41,51 C39.3431458,51 38,52.3431458 38,54 C38,55.6568542 39.3431458,57 41,57 Z M41,53 C41.5522847,53 42,53.4477153 42,54 C42,54.5522847 41.5522847,55 41,55 C40.4477153,55 40,54.5522847 40,54 C40,53.4477153 40.4477153,53 41,53 Z" id="Shape"/><path d="M48,57 C49.6568542,57 51,55.6568542 51,54 C51,52.3431458 49.6568542,51 48,51 C46.3431458,51 45,52.3431458 45,54 C45,55.6568542 46.3431458,57 48,57 Z M48,53 C48.5522847,53 49,53.4477153 49,54 C49,54.5522847 48.5522847,55 48,55 C47.4477153,55 47,54.5522847 47,54 C47,53.4477153 47.4477153,53 48,53 Z" id="Shape"/><path d="M6,60 L48,60 C51.3137085,60 54,57.3137085 54,54 C54,50.6862915 51.3137085,48 48,48 L47,48 L47,36 C47,34.708 46.1,33.158 45.3,31.789 C45.032,31.33 44.785,30.91 44.624,30.57 C44.1542086,29.094006 43.9431005,27.5479098 44,26 C43.9684452,25.6575771 44.0799232,25.3173521 44.308,25.06 C44.7881521,24.4606492 45.0340873,23.7072063 45,22.94 C44.9983464,21.328014 43.691986,20.0216536 42.08,20.02 L39.92,20.02 C38.308014,20.0216536 37.0016536,21.328014 37,22.94 C36.9659127,23.7072063 37.2118479,24.4606492 37.692,25.06 C37.9200768,25.3173521 38.0315548,25.6575771 38,26 C38.0570232,27.5477681 37.8466042,29.0937724 37.378,30.57 C37.216,30.91 36.969,31.33 36.701,31.789 C35.9,33.158 35,34.708 35,36 L35,48 L33,48 L33,36 C33,34.708 32.1,33.158 31.3,31.789 C31.032,31.33 30.785,30.91 30.624,30.57 C30.1542086,29.094006 29.9431005,27.5479098 30,26 C29.9684452,25.6575771 30.0799232,25.3173521 30.308,25.06 C30.7881521,24.4606492 31.0340873,23.7072063 31,22.94 C30.9983464,21.328014 29.691986,20.0216536 28.08,20.02 L28,20.02 L28,19 C28,18.4477153 27.5522847,18 27,18 C26.4477153,18 26,18.4477153 26,19 L26,20.02 L25.92,20.02 C24.308014,20.0216536 23.0016536,21.328014 23,22.94 C22.9659127,23.7072063 23.2118479,24.4606492 23.692,25.06 C23.9200768,25.3173521 24.0315548,25.6575771 24,26 C24.0570232,27.5477681 23.8466042,29.0937724 23.378,30.57 C23.216,30.91 22.969,31.33 22.701,31.789 C21.9,33.158 21,34.708 21,36 L21,48 L19,48 L19,36 C19,34.708 18.1,33.158 17.3,31.789 C17.032,31.33 16.785,30.91 16.624,30.57 C16.1542086,29.094006 15.9431005,27.5479098 16,26 C15.9684452,25.6575771 16.0799232,25.3173521 16.308,25.06 C16.7881521,24.4606492 17.0340873,23.7072063 17,22.94 C16.9983464,21.328014 15.691986,20.0216536 14.08,20.02 L11.92,20.02 C10.308014,20.0216536 9.0016536,21.328014 9,22.94 C8.96591273,23.7072063 9.2118479,24.4606492 9.692,25.06 C9.92007678,25.3173521 10.0315548,25.6575771 10,26 C10.0570232,27.5477681 9.84660423,29.0937724 9.378,30.57 C9.216,30.91 8.969,31.33 8.701,31.789 C7.9,33.158 7,34.708 7,36 L7,48 L6,48 C2.6862915,48 8.8817842e-16,50.6862915 0,54 C-4.4408921e-16,57.3137085 2.6862915,60 6,60 Z M37,39 L45,39 L45,44 L37,44 L37,39 Z M38.429,32.8 C38.729,32.286 39.002,31.815 39.184,31.434 C39.7844552,29.687426 40.0609891,27.8459002 40,26 C40.0340873,25.2327937 39.7881521,24.4793508 39.308,23.88 C39.0799232,23.6226479 38.9684452,23.2824229 39,22.94 C39.0005511,22.4321265 39.4121265,22.0205511 39.92,22.02 L42.08,22.02 C42.5878735,22.0205511 42.9994489,22.4321265 43,22.94 C43.0315548,23.2824229 42.9200768,23.6226479 42.692,23.88 C42.2118479,24.4793508 41.9659127,25.2327937 42,26 C41.9393716,27.8446513 42.2162501,29.6848599 42.817,31.43 C42.998,31.811 43.271,32.282 43.571,32.796 C44.2402516,33.7670694 44.7246858,34.8532326 45,36 L45,37 L37,37 L37,36 C37.275777,34.8546284 37.7601941,33.7698596 38.429,32.8 Z M37,46 L45,46 L45,48 L37,48 L37,46 Z M23,39 L31,39 L31,44 L23,44 L23,39 Z M24.429,32.8 C24.729,32.286 25.002,31.815 25.184,31.434 C25.7844552,29.687426 26.0609891,27.8459002 26,26 C26.0340873,25.2327937 25.7881521,24.4793508 25.308,23.88 C25.0799232,23.6226479 24.9684452,23.2824229 25,22.94 C25.0005511,22.4321265 25.4121265,22.0205511 25.92,22.02 L28.08,22.02 C28.5878735,22.0205511 28.9994489,22.4321265 29,22.94 C29.0315548,23.2824229 28.9200768,23.6226479 28.692,23.88 C28.2118479,24.4793508 27.9659127,25.2327937 28,26 C27.9393716,27.8446513 28.2162501,29.6848599 28.817,31.43 C28.998,31.811 29.271,32.282 29.571,32.796 C30.2402516,33.7670694 30.7246858,34.8532326 31,36 L31,37 L23,37 L23,36 C23.275777,34.8546284 23.7601941,33.7698596 24.429,32.8 Z M23,46 L31,46 L31,48 L23,48 L23,46 Z M9,39 L17,39 L17,44 L9,44 L9,39 Z M10.429,32.8 C10.729,32.286 11.002,31.815 11.184,31.434 C11.7844552,29.687426 12.0609891,27.8459002 12,26 C12.0340873,25.2327937 11.7881521,24.4793508 11.308,23.88 C11.0799232,23.6226479 10.9684452,23.2824229 11,22.94 C11.0005511,22.4321265 11.4121265,22.0205511 11.92,22.02 L14.08,22.02 C14.5878735,22.0205511 14.9994489,22.4321265 15,22.94 C15.0315548,23.2824229 14.9200768,23.6226479 14.692,23.88 C14.2118479,24.4793508 13.9659127,25.2327937 14,26 C13.9393716,27.8446513 14.2162501,29.6848599 14.817,31.43 C14.998,31.811 15.271,32.282 15.571,32.796 C16.2402516,33.7670694 16.7246858,34.8532326 17,36 L17,37 L9,37 L9,36 C9.27577704,34.8546284 9.76019411,33.7698596 10.429,32.8 Z M9,46 L17,46 L17,48 L9,48 L9,46 Z M6,50 L48,50 C50.209139,50 52,51.790861 52,54 C52,56.209139 50.209139,58 48,58 L6,58 C3.790861,58 2,56.209139 2,54 C2,51.790861 3.790861,50 6,50 Z" id="Shape"/><path d="M26,13 L26,15 C26,15.5522847 26.4477153,16 27,16 C27.5522847,16 28,15.5522847 28,15 L28,13 C28,12.4477153 27.5522847,12 27,12 C26.4477153,12 26,12.4477153 26,13 Z" id="Shape"/><path d="M14,8 L19.142,8 C19.5965933,9.76068514 21.1815884,10.9931852 23,11 L23,12 C23,12.5522847 23.4477153,13 24,13 C24.5522847,13 25,12.5522847 25,12 L25,11 L29,11 L29,12 C29,12.5522847 29.4477153,13 30,13 C30.5522847,13 31,12.5522847 31,12 L31,11 C32.8184116,10.9931852 34.4034067,9.76068514 34.858,8 L40,8 C42.209139,8 44,6.209139 44,4 L44,1 C44,0.44771525 43.5522847,3.38176876e-17 43,0 L39,0 C38.4477153,-3.38176876e-17 38,0.44771525 38,1 L38,2 L34.444,2 C33.7350239,0.766647755 32.4225979,0.00449558751 31,0 L23,0 C21.5774021,0.00449558751 20.2649761,0.766647755 19.556,2 L16,2 L16,1 C16,0.44771525 15.5522847,3.38176876e-17 15,0 L11,0 C10.4477153,-3.38176876e-17 10,0.44771525 10,1 L10,4 C10,6.209139 11.790861,8 14,8 Z M39,4 C39.5522847,4 40,3.55228475 40,3 L40,2 L42,2 L42,4 C42,5.1045695 41.1045695,6 40,6 L35,6 L35,4 L39,4 Z M23,2 L31,2 C32.1045695,2 33,2.8954305 33,4 L33,7 C33,8.1045695 32.1045695,9 31,9 L23,9 C21.8954305,9 21,8.1045695 21,7 L21,4 C21,2.8954305 21.8954305,2 23,2 Z M12,2 L14,2 L14,3 C14,3.55228475 14.4477153,4 15,4 L19,4 L19,6 L14,6 C12.8954305,6 12,5.1045695 12,4 L12,2 Z" id="Shape"/></g></g></svg>
