<?xml version="1.0" encoding="UTF-8"?>
<svg xmlns="http://www.w3.org/2000/svg" xmlns:xlink="http://www.w3.org/1999/xlink" width="512" height="512" viewBox="0 0 60 60" version="1.1"><!-- Generator: Sketch 51.3 (57544) - http://www.bohemiancoding.com/sketch --><title>010 - DNA</title><desc>Created with Sketch.</desc><defs/><g id="Page-1" stroke="none" stroke-width="1" fill="none" fill-rule="evenodd"><g id="010---DNA" transform="translate(-1.000000, -1.000000)" fill="#000000" fill-rule="nonzero"><path d="M59.83,15.5669 C59.0898043,14.9082694 58.1046249,14.5951569 57.12,14.7056 C53.91139,15.0193519 50.6770491,14.9555827 47.4833,14.5156 C47.0436205,11.3223299 46.9798519,8.08852125 47.2933,4.8804 C47.5055374,2.96945602 46.1360814,1.24528571 44.2266926,1.0194848 C42.3173039,0.793683884 40.583453,2.15086267 40.3441,4.0586 C40.0109508,7.17452569 40.0039127,10.3167132 40.3231,13.4341 C34.1753,12.8481 24.2731,12.9695 18.6224,18.6225 C12.9716,24.2725 12.8483,34.1725 13.4335,40.3234 C10.3164852,40.0035272 7.17456462,40.0104985 4.059,40.3442 C2.13981049,40.5706367 0.767563253,42.3100105 0.994,44.2292 C1.22043675,46.1483895 2.95981049,47.5206367 4.879,47.2942 C8.08756327,46.9795852 11.3219858,47.0431882 14.5157,47.4837 C14.955213,50.6769896 15.0188138,53.9107983 14.7052,57.1189 C14.4929626,59.029844 15.8624186,60.7540143 17.7718074,60.9798152 C19.6811961,61.2056161 21.415047,59.8484373 21.6544,57.9407 C21.9875999,54.8246768 21.9946381,51.6823846 21.6754,48.5649 C23.0986,48.7006 24.7188,48.7991 26.4454,48.7991 C32.1768,48.7991 39.0323,47.721 43.3761,43.3768 C49.0266,37.7268 49.1502,27.8278 48.565,21.6774 C49.9412,21.8103 51.565,21.9124 53.3204,21.9124 C54.8637852,21.9162193 56.4060872,21.8303077 57.9395,21.6551 C59.3006595,21.4814025 60.4351062,20.5290417 60.8419219,19.2185354 C61.2487377,17.9080291 60.8530203,16.480665 59.8295,15.5667 L59.83,15.5669 Z M20.6006,41.3984 C19.749,35.2184 20.0371,27.1172 23.5771,23.5771 C27.1171,20.037 35.2178,19.748 41.3994,20.6011 C42.251,26.7811 41.9629,34.8823 38.4229,38.4229 C34.8829,41.9635 26.7793,42.2515 20.6006,41.3984 Z M4.6533,45.3071 C4.23441821,45.3595819 3.81359205,45.2257275 3.502,44.9409 C3.06555342,44.5512687 2.89478881,43.9438247 3.06428262,43.3838514 C3.23377644,42.8238782 3.71274002,42.4130952 4.292,42.3309 C7.40915718,42.0006917 10.5529295,42.0094429 13.6682,42.357 C13.8613,43.7719 14.0582,44.7679 14.1426,45.1702 L14.1982,45.4288 C11.0310915,45.0319626 7.82949682,44.9911414 4.6533,45.3071 Z M19.6689,57.708 C19.5865684,58.2869581 19.1760483,58.7656743 18.6164148,58.9353252 C18.0567814,59.104976 17.4495483,58.9347881 17.0596,58.499 C16.7766235,58.1859019 16.6427494,57.7657954 16.6924,57.3467 C17.0368705,53.8170525 16.949795,50.2585749 16.4331,46.75 C16.4647989,46.6117481 16.4662997,46.4682848 16.4375,46.3294 L16.0986,44.7537 C16.0254,44.407 15.7705,43.137 15.5527,41.3323 C14.8867,35.719 14.585,25.4891 20.0371,20.0369 C25.2515,14.822 34.8246,14.8719 40.559,15.4693 C40.7511,16.8807 40.9469,17.8753 41.0322,18.2801 L41.0897,18.5473 C37.0121,18.0573 26.9158,17.4103 22.1631,22.1629 C16.9323,27.3929 18.2416,39.0939 18.6846,42.1217 C18.6476019,42.2651368 18.6436016,42.4150947 18.6729,42.5603 L19.0129,44.1394 C19.1057,44.5828 19.3459,45.8035 19.5568,47.5594 C19.9835953,50.926749 20.0212098,54.3320451 19.6689,57.708 Z M41.9629,41.9629 C36.7476,47.1777 27.1746,47.1284 21.441,46.5305 C21.2489,45.119 21.0531,44.1246 20.9678,43.7197 L20.91,43.45 C22.7435916,43.6715474 24.5886764,43.7845111 26.4356,43.7883 C31.0128,43.7883 36.6368,43.0363 39.837,39.8366 C45.0676,34.6066 43.7586,22.9066 43.3157,19.8778 C43.3525973,19.7343432 43.356529,19.5843933 43.3272,19.4392 L42.9872,17.8601 C42.8944,17.4167 42.6542,16.196 42.4433,14.4401 C42.0165099,11.0729196 41.9788619,7.66779354 42.3311,4.292 C42.4135584,3.7132256 42.8239998,3.23470609 43.383469,3.06507897 C43.9429383,2.89545186 44.5500111,3.06546827 44.94,3.501 C45.2229765,3.81409811 45.3568506,4.23420461 45.3072,4.6533 C44.9628599,8.18296369 45.0500698,11.7414415 45.5669,15.25 C45.5352512,15.3882579 45.5337505,15.5317103 45.5625,15.6706 L45.9014,17.2463 C45.9746,17.593 46.2295,18.863 46.4473,20.6677 C47.1133,26.2808 47.415,36.5107 41.9629,41.9629 Z M57.708,19.6689 C54.5908475,19.9992371 51.4470577,19.9904524 48.3318,19.6427 C48.1387,18.228 47.9418,17.2319 47.8574,16.8296 L47.8018,16.5711 C50.9689052,16.967964 54.1704992,17.0088187 57.3467,16.6929 C57.7654765,16.6415552 58.185837,16.7752614 58.498,17.0591 C58.9344466,17.4487313 59.1052112,18.0561753 58.9357174,18.6161486 C58.7662236,19.1761218 58.28726,19.5869048 57.708,19.6691 L57.708,19.6689 Z" id="Shape"/><path d="M31,40 C31.5522847,40 32,39.5522847 32,39 L32,23 C32,22.4477153 31.5522847,22 31,22 C30.4477153,22 30,22.4477153 30,23 L30,39 C30,39.5522847 30.4477153,40 31,40 Z" id="Shape"/><path d="M28,39 L28,25 C28,24.4477153 27.5522847,24 27,24 C26.4477153,24 26,24.4477153 26,25 L26,39 C26,39.5522847 26.4477153,40 27,40 C27.5522847,40 28,39.5522847 28,39 Z" id="Shape"/><path d="M23,30 C22.4477153,30 22,30.4477153 22,31 L22,38 C22,38.5522847 22.4477153,39 23,39 C23.5522847,39 24,38.5522847 24,38 L24,31 C24,30.4477153 23.5522847,30 23,30 Z" id="Shape"/><path d="M35,38 C35.5522847,38 36,37.5522847 36,37 L36,23 C36,22.4477153 35.5522847,22 35,22 C34.4477153,22 34,22.4477153 34,23 L34,37 C34,37.5522847 34.4477153,38 35,38 Z" id="Shape"/><path d="M39,33 C39.5522847,33 40,32.5522847 40,32 L40,24 C40,23.4477153 39.5522847,23 39,23 C38.4477153,23 38,23.4477153 38,24 L38,32 C38,32.5522847 38.4477153,33 39,33 Z" id="Shape"/></g></g></svg>
