<?xml version="1.0" encoding="UTF-8" standalone="no"?>
<!-- Created with Inkscape (http://www.inkscape.org/) -->

<svg
   version="1.1"
   id="svg198"
   width="467.84192"
   height="838.013"
   viewBox="0 0 467.84192 838.013"
   sodipodi:docname="crisp-dm-light.svg"
   inkscape:version="1.2.1 (9c6d41e, 2022-07-14)"
   xmlns:inkscape="http://www.inkscape.org/namespaces/inkscape"
   xmlns:sodipodi="http://sodipodi.sourceforge.net/DTD/sodipodi-0.dtd"
   xmlns="http://www.w3.org/2000/svg"
   xmlns:svg="http://www.w3.org/2000/svg">
  <defs
     id="defs202" />
  <sodipodi:namedview
     id="namedview200"
     pagecolor="#ffffff"
     bordercolor="#000000"
     borderopacity="0.25"
     inkscape:showpageshadow="2"
     inkscape:pageopacity="0.0"
     inkscape:pagecheckerboard="0"
     inkscape:deskcolor="#d1d1d1"
     showgrid="false"
     inkscape:zoom="1.1868259"
     inkscape:cx="210.64589"
     inkscape:cy="369.47289"
     inkscape:window-width="1905"
     inkscape:window-height="1551"
     inkscape:window-x="4145"
     inkscape:window-y="77"
     inkscape:window-maximized="0"
     inkscape:current-layer="layer1" />
  <g
     inkscape:groupmode="layer"
     id="layer1"
     inkscape:label="question"
     style="display:inline"
     transform="translate(21.746438,-17.379422)">
    <path
       style="fill:none;stroke:#ffffff;stroke-width:4;stroke-linecap:round;stroke-linejoin:round;stroke-dasharray:none;stroke-opacity:1"
       d="M 123.85978,54.135993 V 19.379422 h 219.07173 v 33.703344 m 0,33.703344 v 32.86076 H 251.0899 v 28.22654 h 15.5878 l -33.28205,33.28205 -33.70335,-33.70334 h 16.00909 v -26.96267 l -91.84161,0.84258 V 91.841606"
       id="path3121"
       sodipodi:nodetypes="ccccccccccccccc" />
    <path
       style="fill:none;stroke:#ffffff;stroke-width:4;stroke-linecap:round;stroke-linejoin:round;stroke-dasharray:none;stroke-opacity:1"
       d="m 123.85979,198.92462 v -32.93561 h 93.52678 m 32.01818,0 h 93.52677 V 266.25646 H 251.0899 V 294.483 h 15.5878 l -33.28205,33.28205 -33.70335,-33.70334 h 16.0091 v -26.96267 l -91.84161,0.84258 v -32.95346"
       id="path3121-3"
       sodipodi:nodetypes="ccccccccccccccc" />
    <path
       style="fill:none;stroke:#ffffff;stroke-width:4;stroke-linecap:round;stroke-linejoin:round;stroke-dasharray:none;stroke-opacity:1"
       d="m 123.85978,347.14447 v -34.54592 h 93.52678 m 125.54495,62.94335 v 37.32409 h -91.84162 v 28.22654 h 15.5878 l -33.28205,33.28205 -33.70335,-33.70334 h 16.0091 v -26.96267 l -91.84161,0.84258 V 373.8965 m 125.54496,-61.29795 h 93.52677 v 33.40801"
       id="path3121-3-0"
       sodipodi:nodetypes="ccccccccccccccccc" />
    <path
       style="fill:none;stroke:#ffffff;stroke-width:4;stroke-linecap:round;stroke-linejoin:round;stroke-dasharray:none;stroke-opacity:1"
       d="m 249.40474,459.20809 h 93.52677 v 100.26744 h -91.84162 v 28.22654 h 15.5878 l -33.28205,33.28205 -33.70335,-33.70334 h 16.0091 v -26.96267 l -91.84161,0.84258 v -101.9526 h 93.52678"
       id="path3121-3-0-2"
       sodipodi:nodetypes="ccccccccccccc" />
    <path
       style="fill:none;stroke:#ffffff;stroke-width:4;stroke-linecap:round;stroke-linejoin:round;stroke-dasharray:none;stroke-opacity:1"
       d="m 416.40221,377.27694 c 0.0899,-7.98204 -18.48504,-28.68142 -39.65254,-28.68142 -11.92428,0 -14.78232,0.0978 -14.78232,0.0978 l -8.00586,0.0978 V 335.5354 l -25.69879,25.6988 26.96267,26.96267 V 376.4007 h 4.85682 14.00394 c 14.42392,0 21.90717,9.68101 21.90717,21.91594 0,12.23493 0.2979,209.85283 0.2979,225.11266 0,9.8125 -4.17161,24.7416 -23.85667,24.7416 -9.57808,0 -19.15146,0.0466 -28.72674,-0.21737 l 0.0663,-42.97848 h -93.52677"
       id="path3121-3-0-2-4"
       sodipodi:nodetypes="cscccccccssscccc" />
    <path
       style="fill:none;stroke:#ffffff;stroke-width:4;stroke-linecap:round;stroke-linejoin:round;stroke-dasharray:none;stroke-opacity:1"
       d="m 249.56135,751.43981 h 93.52677 l 0.14292,41.88557 40.94677,-0.45424 h 8.4997 c 19.68506,0 23.85667,-14.9291 23.85667,-24.7416 0,-21.44016 -0.2979,-649.08942 -0.2979,-661.11266 0,-12.023236 -7.48325,-21.91594 -21.90717,-21.91594 H 380.32517 353.46835 V 96.89711 L 326.50568,69.934436 352.20447,44.235637 v 13.255722 l 30.00586,-0.09784 c 0,0 2.85804,-0.09784 14.78232,-0.09784 23.84858,0 47.3979,21.297517 47.1,47.746911 -0.26637,23.65094 0,628.69146 0,662.68683 0,33.99538 -24.47357,51.85761 -48.49603,51.85761 -17.37178,0 -34.74314,0.008 -52.1144,0.17441 l -0.3941,33.7332 -219.07173,-0.10223 v -101.9526 h 93.52678"
       id="path3121-3-0-2-4-5"
       sodipodi:nodetypes="cccccszscccccccsszcccccc" />
    <path
       style="fill:none;stroke:#ffffff;stroke-width:4;stroke-linecap:round;stroke-linejoin:round;stroke-dasharray:none;stroke-opacity:1"
       d="m 216.5907,604.97504 h -91.88834 v 101.9526 l 91.84161,-0.84258 v 26.96267 h -16.0091 l 33.70335,33.70334 33.28205,-33.28205 h -15.5878 v -28.22654 h 91.84162 l 0.18488,-30.40601 c 10.05647,0 18.81732,0.0504 29.28821,0.0504 27.37462,0 43.27842,-13.94721 43.27842,-35.18771"
       id="path577"
       sodipodi:nodetypes="ccccccccccccsc" />
    <path
       d="m 62.751458,74.229596 c 8.831165,-8.630555 20.68064,-13.954934 32.60493,-13.954934 11.924282,0 14.782322,0.09784 14.782322,0.09784 l 6.00586,0.09784 V 47.21462 l 25.69879,25.698799 -26.96267,26.962679 V 88.079923 h -2.85682 -14.003942 c -14.42392,0 -21.90717,9.892705 -21.90717,21.915947 0,12.02324 -0.2979,47.6725 -0.2979,69.11266 0,9.8125 4.022661,25.18845 23.707721,25.18845 m -36.026598,13.0885 c -9.1212,-8.71498 -15.239593,-21.67938 -15.239593,-38.67707 0,-33.99537 0.266381,-47.03589 0,-70.68683 -0.03724,-3.30618 2.4e-4,-5.04236 0.662236,-8.156005"
       style="fill:none;stroke:#ffffff;stroke-width:4;stroke-linecap:round;stroke-linejoin:round;stroke-dasharray:none;stroke-opacity:1"
       id="path1968"
       sodipodi:nodetypes="cscccccccsssccssc" />
    <path
       d="m 123.41949,373.9703 -15.34264,0.5958 H 96.752418 c -24.02246,0 -48.49603,-17.86223 -48.49603,-51.85761 0,-33.99537 0.26637,-47.03589 0,-70.68683 -0.2979,-26.4494 23.25142,-47.74692 47.1,-47.74692 11.924282,0 14.782322,0.0978 14.782322,0.0978 l 6.00586,0.0978 v -13.25572 l 25.69879,25.6988 -26.96267,26.96268 v -11.79618 h -2.85682 -14.003942 c -14.42392,0 -21.90717,9.89271 -21.90717,21.91595 0,12.02324 -0.2979,47.6725 -0.2979,69.11266 0,9.8125 4.17161,24.7416 23.85667,24.7416 h 8.499702 15.53996"
       style="fill:none;stroke:#ffffff;stroke-width:4;stroke-linecap:round;stroke-linejoin:round;stroke-dasharray:none;stroke-opacity:1"
       id="path1968-9"
       sodipodi:nodetypes="ccsssscccccccsssscc" />
    <path
       d="M 106.70879,374.5661 H 28.752418 c -24.02246,0 -48.49603,-17.86223 -48.49603,-51.85761 0,-33.99537 0.26637,-183.03589 0,-206.68683 -0.2979,-26.4494 23.25142,-47.74692 47.1,-47.74692 11.924282,0 8.782322,0.0978 8.782322,0.0978 l 6.00586,0.0978 V 55.21462 L 67.84336,80.91342 40.88069,107.8761 V 96.07992 h -2.85682 -8.003942 c -14.42392,0 -21.90717,9.89271 -21.90717,21.91595 0,12.02324 -0.2979,183.6725 -0.2979,205.11266 0,9.8125 4.17161,24.7416 23.85667,24.7416 h 21.838229"
       style="fill:none;stroke:#ffffff;stroke-width:4;stroke-linecap:round;stroke-linejoin:round;stroke-dasharray:none;stroke-opacity:1"
       id="path1968-9-4"
       sodipodi:nodetypes="csssscccccccssssc" />
  </g>
  <g
     inkscape:groupmode="layer"
     id="layer2"
     inkscape:label="Text"
     style="display:inline"
     transform="translate(21.746438,-17.379422)">
    <text
       xml:space="preserve"
       style="font-weight:bold;font-size:32px;font-family:Montserrat;-inkscape-font-specification:'Montserrat Bold';fill:#ffffff;fill-opacity:1;stroke:#ff0101;stroke-width:4;stroke-linecap:round;stroke-linejoin:round;stroke-dasharray:none;stroke-opacity:1"
       x="165.98897"
       y="81.730606"
       id="text3273"><tspan
         sodipodi:role="line"
         id="tspan3271"
         x="165.98897"
         y="81.730606"
         style="font-style:normal;font-variant:normal;font-weight:500;font-stretch:normal;font-family:'Avenir Next';-inkscape-font-specification:'Avenir Next Medium';fill:#ffffff;fill-opacity:1;stroke:none">Question</tspan></text>
    <text
       xml:space="preserve"
       style="font-weight:bold;font-size:32px;font-family:Montserrat;-inkscape-font-specification:'Montserrat Bold';fill:#ffffff;fill-opacity:1;stroke:#ff0101;stroke-width:4;stroke-linecap:round;stroke-linejoin:round;stroke-dasharray:none;stroke-opacity:1"
       x="199.10454"
       y="229.63715"
       id="text3273-4"><tspan
         sodipodi:role="line"
         id="tspan3271-6"
         x="199.10454"
         y="229.63715"
         style="font-style:normal;font-variant:normal;font-weight:500;font-stretch:normal;font-family:'Avenir Next';-inkscape-font-specification:'Avenir Next Medium';fill:#ffffff;fill-opacity:1;stroke:none">Data</tspan></text>
    <text
       xml:space="preserve"
       style="font-weight:bold;font-size:32px;font-family:Montserrat;-inkscape-font-specification:'Montserrat Bold';fill:#ffffff;fill-opacity:1;stroke:#ff0101;stroke-width:4;stroke-linecap:round;stroke-linejoin:round;stroke-dasharray:none;stroke-opacity:1"
       x="185.86093"
       y="374.28952"
       id="text3273-4-5"><tspan
         sodipodi:role="line"
         id="tspan3271-6-2"
         x="185.86093"
         y="374.28952"
         style="font-style:normal;font-variant:normal;font-weight:500;font-stretch:normal;font-family:'Avenir Next';-inkscape-font-specification:'Avenir Next Medium';fill:#ffffff;fill-opacity:1;stroke:none">Model</tspan></text>
    <text
       xml:space="preserve"
       style="font-weight:bold;font-size:32px;font-family:Montserrat;-inkscape-font-specification:'Montserrat Bold';fill:#ffffff;fill-opacity:1;stroke:#ff0101;stroke-width:4;stroke-linecap:round;stroke-linejoin:round;stroke-dasharray:none;stroke-opacity:1"
       x="198.29047"
       y="521.65106"
       id="text3273-4-5-5"><tspan
         sodipodi:role="line"
         id="tspan3271-6-2-3"
         x="198.29047"
         y="521.65106"
         style="font-style:normal;font-variant:normal;font-weight:500;font-stretch:normal;font-family:'Avenir Next';-inkscape-font-specification:'Avenir Next Medium';fill:#ffffff;fill-opacity:1;stroke:none">Train</tspan></text>
    <text
       xml:space="preserve"
       style="font-weight:bold;font-size:32px;font-family:Montserrat;-inkscape-font-specification:'Montserrat Bold';fill:#ffffff;fill-opacity:1;stroke:#ff0101;stroke-width:4;stroke-linecap:round;stroke-linejoin:round;stroke-dasharray:none;stroke-opacity:1"
       x="174.70479"
       y="667.50861"
       id="text3273-4-5-5-5"><tspan
         sodipodi:role="line"
         id="tspan3271-6-2-3-9"
         x="174.70479"
         y="667.50861"
         style="font-style:normal;font-variant:normal;font-weight:500;font-stretch:normal;font-family:'Avenir Next';-inkscape-font-specification:'Avenir Next Medium';fill:#ffffff;fill-opacity:1;stroke:none">Validate</tspan></text>
    <text
       xml:space="preserve"
       style="font-weight:bold;font-size:32px;font-family:Montserrat;-inkscape-font-specification:'Montserrat Bold';fill:#ffffff;fill-opacity:1;stroke:#ff0101;stroke-width:4;stroke-linecap:round;stroke-linejoin:round;stroke-dasharray:none;stroke-opacity:1"
       x="182.97363"
       y="814.02753"
       id="text3273-4-5-5-5-3"><tspan
         sodipodi:role="line"
         id="tspan3271-6-2-3-9-8"
         x="182.97363"
         y="814.02753"
         style="font-style:normal;font-variant:normal;font-weight:500;font-stretch:normal;font-family:'Avenir Next';-inkscape-font-specification:'Avenir Next Medium';fill:#ffffff;fill-opacity:1;stroke:none">Report</tspan></text>
  </g>
</svg>
