<?xml version="1.0" encoding="UTF-8"?>
<svg width="1200pt" height="1200pt" version="1.1" viewBox="0 0 1200 1200" xmlns="http://www.w3.org/2000/svg">
 <g fill="none" stroke="#fff" stroke-linecap="round" stroke-linejoin="round" stroke-miterlimit="10" stroke-width="2">
  <path transform="scale(17.143)" d="m23.986 51.596v7.4038h-12.986v-7.4035c0-1.9653 1.7024-3.5517 3.7924-3.5517h5.4018c2.0984-2.28e-4 3.7924 1.5862 3.7924 3.5515z"/>
  <path transform="scale(17.143)" d="m21.389 40.444c0 2.1517-1.7443 3.8963-3.8963 3.8963-2.1517 0-3.8963-1.7445-3.8963-3.8963 0-2.152 1.7445-3.8965 3.8963-3.8965 2.152 0 3.8963 1.7445 3.8963 3.8965"/>
  <path transform="scale(17.143)" d="m59 51.596v7.4038h-12.986v-7.4035c0-1.9653 1.7024-3.5517 3.7924-3.5517h5.4018c2.0984-2.28e-4 3.7924 1.5862 3.7924 3.5515z"/>
  <path transform="scale(17.143)" d="m56.403 40.444c0 2.1517-1.7445 3.8963-3.8963 3.8963-2.152 0-3.8963-1.7445-3.8963-3.8963 0-2.152 1.7443-3.8965 3.8963-3.8965 2.1517 0 3.8963 1.7445 3.8963 3.8965"/>
  <path transform="scale(17.143)" d="m41.507 26.081v7.4193h-13.014v-7.4193c0-1.9694 1.7058-3.5595 3.8003-3.5595h5.4134c2.1027 0 3.8001 1.5898 3.8001 3.5595z"/>
  <path transform="scale(17.143)" d="m38.905 14.905c0 2.1565-1.7482 3.9045-3.9047 3.9045s-3.9047-1.7479-3.9047-3.9045c0-2.1565 1.7482-3.9047 3.9047-3.9047s3.9047 1.7482 3.9047 3.9047"/>
  <path transform="scale(17.143)" d="m29.845 45.155c2.8501 0 5.1502-2.3001 5.1502-5.15 0 1.4201 0.57992 2.71 1.5101 3.6399 0.92992 0.93994 2.2299 1.5101 3.6499 1.5101"/>
 </g>
</svg>
