<?xml version="1.0" encoding="UTF-8"?>
<svg width="1200pt" height="1200pt" version="1.1" viewBox="0 0 1200 1200" xmlns="http://www.w3.org/2000/svg">
 <g fill="#fff">
  <path d="m1140.7 39.469c0-4.9727-1.9766-9.7422-5.4922-13.258-3.5156-3.5156-8.2852-5.4922-13.258-5.4922h-1074.2c-4.9727 0-9.7422 1.9766-13.258 5.4922-3.5156 3.5156-5.4922 8.2852-5.4922 13.258v849.28c0 4.9727 1.9766 9.7422 5.4922 13.258 3.5156 3.5156 8.2852 5.4922 13.258 5.4922h826.73l3.0391 207.19h-0.003906c0.28125 17.02 7.2383 33.25 19.367 45.191 12.133 11.941 28.469 18.641 45.492 18.652h5.418c17.188-0.25 33.566-7.3203 45.543-19.652 11.973-12.332 18.555-28.918 18.301-46.105l-3.0195-205.27h113.36c4.9727 0 9.7422-1.9766 13.258-5.4922 3.5156-3.5156 5.4922-8.2852 5.4922-13.258v-179.23c39.973-47.918 61.867-108.34 61.867-170.75 0-62.406-21.895-122.83-61.867-170.75zm-37.5 18.75v136.78h-1036.7v-136.78zm-1036.7 174.28h1036.7v98.625c-43.848-35.461-97.797-56.133-154.12-59.055-56.316-2.918-112.11 12.062-159.39 42.801-47.281 30.738-83.617 75.652-103.81 128.31-20.188 52.656-23.188 110.35-8.5742 164.82 14.613 54.469 46.09 102.91 89.926 138.39 43.836 35.48 97.777 56.172 154.09 59.113l0.76953 51.824-29.551 0.42969v0.003906c-3.8203 0.019532-7.5391 1.2305-10.641 3.4648-3.0977 2.2383-5.4219 5.3828-6.6484 9.0039h-808.78zm845.29 662.32 59.102-0.86328 0.42969 28.781-59.102 0.88281zm54.637 237.94c-5.0352 5.207-11.941 8.1836-19.18 8.2695h-4.875c-7.1602-0.011719-14.027-2.8281-19.133-7.8438s-8.0469-11.832-8.1875-18.988l-2.25-153.07 59.117-0.88281 2.25 153.07v0.003906c0.13281 7.2578-2.6562 14.262-7.7422 19.441zm40.707-262.76c-1.0156-3.9453-3.3086-7.4453-6.5195-9.957-3.2109-2.5078-7.1641-3.8867-11.238-3.918h-0.28125l-29.551 0.42969-0.76953-52.07 0.003906 0.003906c52.805-4.6953 103.04-24.922 144.38-58.125v123.75zm130.31-222.23c-21.594 40.012-54.57 72.723-94.758 93.984-40.188 21.266-85.781 30.133-131.01 25.48-45.227-4.6523-88.059-22.617-123.07-51.617-35.016-29.004-60.645-67.738-73.641-111.31-12.992-43.57-12.773-90.016 0.63672-133.46 13.406-43.445 39.402-81.938 74.691-110.61 35.289-28.668 78.293-46.223 123.56-50.445 45.27-4.2227 90.773 5.0781 130.76 26.723 53.555 29.012 93.41 78.09 110.82 136.46s10.938 121.26-17.984 174.87z"/>
  <path d="m658.12 107.79h362.21v37.5h-362.21z"/>
  <path d="m135.58 107.79h84.148v37.5h-84.148z"/>
  <path d="m266.72 107.79h84.133v37.5h-84.133z"/>
  <path d="m1025.3 372.28c-44.121-23.844-95.906-29.184-143.97-14.844-48.059 14.336-88.453 47.18-112.3 91.297-23.848 44.121-29.191 95.906-14.859 143.97 14.332 48.059 47.168 88.461 91.289 112.31 44.117 23.852 95.902 29.199 143.96 14.871s88.465-47.16 112.32-91.273c23.789-44.141 29.105-95.918 14.773-143.97-14.332-48.051-47.137-88.461-91.219-112.36zm43.426 238.5c-22.418 41.453-62.84 70.117-109.38 77.57-46.531 7.4492-93.883-7.1641-128.12-39.543-34.238-32.383-51.473-78.844-46.633-125.72 4.8438-46.879 31.207-88.836 71.344-113.54 40.137-24.695 89.473-29.324 133.5-12.52 44.027 16.801 77.734 53.125 91.211 98.285 11.609 38.535 7.3164 80.113-11.926 115.46z"/>
  <path d="m603 307.69h-146.25c-4.9727 0-9.7422 1.9766-13.258 5.4922-3.5156 3.5156-5.4922 8.2852-5.4922 13.258v159.05h-108.75v-78.242c0-4.9727-1.9766-9.7422-5.4922-13.258-3.5156-3.5156-8.2852-5.4922-13.258-5.4922h-146.25c-4.9727 0-9.7422 1.9766-13.258 5.4922-3.5156 3.5156-5.4922 8.2852-5.4922 13.258v323.27c0 4.9727 1.9766 9.7422 5.4922 13.258 3.5156 3.5156 8.2852 5.4922 13.258 5.4922h438.75c4.9727 0 9.7422-1.9766 13.258-5.4922 3.5156-3.5156 5.4922-8.2852 5.4922-13.258v-404.08c0-4.9727-1.9766-9.7422-5.4922-13.258-3.5156-3.5156-8.2852-5.4922-13.258-5.4922zm-420.26 118.31h108.84v285.77h-108.75zm146.25 96.992h108.75v188.78h-108.75zm255.26 188.78h-108.75v-366.58h108.75z"/>
 </g>
</svg>
